<?xml version="1.0" standalone="no"?>
<!DOCTYPE svg PUBLIC "-//W3C//DTD SVG 20010904//EN"
 "http://www.w3.org/TR/2001/REC-SVG-20010904/DTD/svg10.dtd">
<svg version="1.0" xmlns="http://www.w3.org/2000/svg"
 width="1118.000000pt" height="213.000000pt" viewBox="0 0 1118.000000 213.000000"
 preserveAspectRatio="xMidYMid meet">

<g transform="translate(0.000000,213.000000) scale(0.100000,-0.100000)"
fill="#000000" stroke="none">
<path d="M7376 2076 c-104 -44 -174 -116 -218 -223 l-23 -58 -3 -690 c-2 -418
1 -714 7 -752 21 -133 100 -241 218 -300 52 -25 68 -28 158 -28 88 0 107 3
157 27 80 37 122 71 161 131 70 107 68 71 65 893 l-3 739 -31 65 c-39 83 -101
145 -184 184 -55 26 -78 31 -155 34 -77 2 -99 -1 -149 -22z m189 -240 c19 -8
44 -30 55 -48 19 -32 20 -49 20 -728 0 -679 -1 -696 -20 -728 -28 -46 -82 -68
-131 -53 -21 6 -49 25 -63 42 l-26 31 0 708 0 708 27 32 c42 50 80 60 138 36z"/>
<path d="M60 1965 l0 -125 99 0 c55 0 106 -3 115 -6 14 -6 16 -95 16 -905 l0
-899 130 0 130 0 0 906 0 905 103 -1 c56 -1 108 -1 115 -1 9 1 12 33 12 126
l0 125 -360 0 -360 0 0 -125z"/>
<path d="M910 1620 l0 -471 118 3 117 3 3 129 3 128 87 -4 c138 -7 173 -41
180 -175 l5 -83 130 0 130 0 -5 78 c-3 45 -12 91 -22 110 -25 48 -90 108 -146
134 -66 31 -67 56 -2 82 26 11 70 43 98 71 40 40 54 62 63 103 23 95 -5 207
-69 271 -75 74 -160 91 -462 91 l-228 0 0 -470z m448 239 c125 -26 150 -170
39 -222 -26 -13 -63 -17 -141 -17 l-106 0 0 118 c0 65 3 122 7 125 10 11 147
8 201 -4z"/>
<path d="M1794 2068 c6 -27 21 -142 164 -1223 l108 -810 142 -3 c140 -3 142
-2 146 20 3 13 21 147 41 298 20 151 80 605 133 1008 l98 732 -133 0 c-73 0
-133 -4 -133 -9 0 -4 -22 -194 -50 -422 -29 -248 -57 -540 -69 -728 -12 -173
-23 -316 -26 -319 -15 -15 -21 37 -41 356 -15 219 -40 483 -68 717 -25 204
-46 378 -46 388 0 15 -13 17 -135 17 -135 0 -135 0 -131 -22z"/>
<path d="M6272 1968 l3 -123 107 -5 c58 -3 109 -8 112 -11 3 -3 7 -408 8 -900
l3 -894 132 -3 133 -3 2 903 3 903 113 3 112 3 0 124 0 125 -365 0 -366 0 3
-122z"/>
<path d="M8350 1130 c0 -789 2 -966 14 -993 17 -42 66 -83 114 -97 20 -5 139
-10 265 -10 l228 0 -3 128 -3 127 -161 0 c-121 0 -165 3 -178 14 -15 12 -16
89 -16 902 l0 889 -130 0 -130 0 0 -960z"/>
<path d="M8964 2053 c4 -21 47 -346 97 -723 49 -377 108 -818 129 -980 22
-162 40 -301 40 -307 0 -10 36 -13 145 -13 80 0 145 2 145 4 0 3 61 463 135
1023 74 560 135 1021 135 1026 0 4 -58 7 -129 7 l-129 0 -6 -37 c-3 -21 -20
-152 -36 -291 -17 -139 -37 -301 -45 -360 -7 -59 -23 -260 -35 -447 -12 -187
-24 -342 -25 -344 -14 -14 -23 24 -29 121 -23 410 -40 602 -81 936 -25 207
-48 387 -51 400 -4 21 -8 22 -135 22 l-131 0 6 -37z"/>
<path d="M9900 1060 l0 -1030 130 0 130 0 0 1030 0 1030 -130 0 -130 0 0
-1030z"/>
<path d="M10275 2068 c3 -13 46 -331 95 -708 50 -377 110 -829 133 -1005 l43
-320 142 -3 c109 -2 143 0 146 10 5 19 266 2010 266 2031 0 15 -13 17 -128 17
l-129 0 -47 -387 c-47 -384 -52 -439 -80 -867 -8 -120 -17 -221 -20 -224 -3
-3 -9 -2 -12 1 -4 3 -17 163 -30 354 -13 202 -40 487 -64 678 -22 182 -43 356
-47 388 l-6 57 -134 0 c-133 0 -133 0 -128 -22z"/>
<path d="M3050 2008 c-199 -77 -312 -261 -327 -534 -7 -128 11 -234 57 -349
67 -165 190 -369 329 -543 203 -254 554 -556 647 -556 60 0 245 158 417 357
22 26 46 47 53 47 6 0 37 -31 68 -68 124 -153 330 -327 398 -338 27 -5 44 2
94 35 82 54 204 163 338 300 60 61 112 111 116 111 4 0 36 -35 71 -77 86 -104
241 -259 309 -309 108 -80 144 -88 176 -38 25 37 10 69 -54 115 -121 89 -402
388 -402 428 0 8 20 40 44 70 102 130 228 344 297 506 23 53 51 189 56 270 6
106 -19 236 -63 329 -33 70 -120 167 -182 203 -56 33 -162 63 -223 63 -46 0
-148 -29 -203 -57 -40 -21 -123 -100 -155 -148 -58 -86 -101 -241 -101 -365 0
-79 28 -229 60 -315 12 -33 24 -69 28 -80 18 -63 174 -349 228 -422 13 -17 24
-39 24 -47 0 -30 -244 -277 -367 -373 -57 -43 -78 -54 -96 -49 -48 12 -367
339 -367 377 0 7 26 51 58 98 112 165 216 370 265 521 37 116 42 149 42 295 0
139 -2 155 -28 225 -38 103 -83 175 -142 225 -115 98 -255 135 -382 101 -157
-42 -274 -153 -328 -311 -22 -64 -45 -187 -45 -246 0 -139 61 -345 162 -544
59 -115 73 -138 149 -255 38 -57 67 -110 65 -116 -9 -22 -155 -190 -222 -255
-86 -82 -136 -119 -159 -119 -32 0 -134 76 -307 228 -56 49 -244 270 -316 369
-213 297 -300 533 -273 740 24 187 94 304 216 362 69 33 188 34 258 3 98 -44
171 -124 207 -230 20 -57 55 -81 97 -66 62 22 49 111 -34 237 -53 79 -121 137
-213 181 -59 28 -75 31 -175 33 -92 2 -119 -1 -165 -19z m1292 -141 c86 -38
143 -106 189 -227 10 -24 14 -81 13 -185 0 -145 -2 -154 -36 -256 -34 -99 -92
-227 -147 -324 -56 -96 -124 -195 -135 -195 -15 0 -115 157 -174 270 -159 309
-192 553 -103 755 68 154 246 227 393 162z m1050 -1 c128 -57 208 -212 208
-402 -1 -171 -69 -341 -246 -609 -75 -113 -96 -137 -115 -130 -16 6 -126 190
-167 279 -96 207 -122 308 -122 466 0 124 19 200 69 279 82 126 241 177 373
117z"/>
<path d="M1180 966 c-142 -40 -238 -143 -260 -283 -6 -32 -10 -192 -10 -355
l0 -298 120 0 120 0 0 85 0 86 148 -3 147 -3 3 -82 3 -83 114 0 115 0 0 327
c0 367 -4 393 -70 480 -40 54 -120 106 -194 128 -59 18 -174 18 -236 1z m211
-234 c14 -8 32 -24 39 -35 15 -25 26 -188 16 -241 l-7 -36 -144 0 -145 0 0
115 c0 160 17 195 105 216 39 9 103 0 136 -19z"/>
</g>
</svg>
